<?xml version="1.0" encoding="utf-8"?>
<!-- Generator: Adobe Illustrator 25.0.1, SVG Export Plug-In . SVG Version: 6.00 Build 0)  -->
<svg version="1.0" id="Layer_1" xmlns="http://www.w3.org/2000/svg" xmlns:xlink="http://www.w3.org/1999/xlink" x="0px" y="0px"
	 viewBox="0 0 707.2 521.9" style="enable-background:new 0 0 707.2 521.9;" xml:space="preserve">
<style type="text/css">
	.st0{fill:#7AD06D;}
</style>
<g>
	<path class="st0" d="M343.5,52.1c-110.4,5.3-197.6,97.2-197.2,207.8c0.1,33.7,8.2,65.5,22.6,93.5l-22,106.9
		c-1.2,5.8,4,10.8,9.8,9.5L261.3,445c26.9,13.4,57.1,21.1,89.1,21.6c112.9,1.7,207-87.9,210.5-200.7
		C564.7,144.9,464.8,46.3,343.5,52.1z M468.4,374.1c-30.7,30.7-71.4,47.6-114.8,47.6c-25.4,0-49.7-5.7-72.3-16.9l-14.6-7.3
		l-64.2,15.2l13.5-65.6l-7.2-14.1c-11.7-22.9-17.6-47.7-17.6-73.7c0-43.4,16.9-84.1,47.6-114.8c30.4-30.4,71.8-47.6,114.8-47.6
		c43.4,0,84.1,16.9,114.8,47.6c30.7,30.7,47.6,71.4,47.6,114.8C516,302.2,498.8,343.7,468.4,374.1z"/>
	<path class="st0" d="M454.3,304.2l-40.2-11.5c-5.3-1.5-11,0-14.8,3.9l-9.8,10c-4.1,4.2-10.4,5.6-15.9,3.4c-19-7.7-59-43.2-69.2-61
		c-2.9-5.1-2.5-11.5,1.2-16.2l8.6-11.1c3.4-4.3,4.1-10.2,1.8-15.2L299,168.2c-4-9.2-15.7-11.8-23.4-5.4
		c-11.2,9.5-24.5,23.9-26.1,39.9c-2.9,28.1,9.2,63.6,54.9,106.2c52.7,49.2,95,55.7,122.4,49.1c15.6-3.8,28.1-18.9,35.9-31.3
		C468.1,318.2,463.9,307,454.3,304.2z"/>
</g>
</svg>
